<svg xmlns="http://www.w3.org/2000/svg" width="408" height="376" viewBox="0 0 408 376">
<rect width="100%" height="100%" fill="#06121f"/>
<text x="48" y="34" fill="#f8fafc" font-size="22" font-family="Arial" font-weight="700">Forward Model Grid</text>
<text x="48" y="58" fill="#93c5fd" font-size="12" font-family="Arial">Observed crater samples are overlaid on the roughness / ice-fraction hypothesis surface.</text>
<rect x="46" y="94" width="184" height="184" rx="10" fill="#0b1b2c" stroke="#334155"/>
<rect x="48" y="96" width="12" height="12" fill="#081f33"/>
<rect x="60" y="96" width="12" height="12" fill="#09293e"/>
<rect x="72" y="96" width="12" height="12" fill="#0a3349"/>
<rect x="84" y="96" width="12" height="12" fill="#0c3d54"/>
<rect x="96" y="96" width="12" height="12" fill="#0d475f"/>
<rect x="108" y="96" width="12" height="12" fill="#0f516a"/>
<rect x="120" y="96" width="12" height="12" fill="#105b75"/>
<rect x="132" y="96" width="12" height="12" fill="#116681"/>
<rect x="144" y="96" width="12" height="12" fill="#1a6f77"/>
<rect x="156" y="96" width="12" height="12" fill="#24786b"/>
<rect x="168" y="96" width="12" height="12" fill="#2d8060"/>
<rect x="180" y="96" width="12" height="12" fill="#378954"/>
<rect x="192" y="96" width="12" height="12" fill="#409249"/>
<rect x="204" y="96" width="12" height="12" fill="#499b3d"/>
<rect x="216" y="96" width="12" height="12" fill="#53a431"/>
<rect x="48" y="108" width="12" height="12" fill="#68ab36"/>
<rect x="60" y="108" width="12" height="12" fill="#80b13d"/>
<rect x="72" y="108" width="12" height="12" fill="#09293e"/>
<rect x="84" y="108" width="12" height="12" fill="#0a3349"/>
<rect x="96" y="108" width="12" height="12" fill="#0c3d54"/>
<rect x="108" y="108" width="12" height="12" fill="#0d475f"/>
<rect x="120" y="108" width="12" height="12" fill="#0f526b"/>
<rect x="132" y="108" width="12" height="12" fill="#105c76"/>
<rect x="144" y="108" width="12" height="12" fill="#116681"/>
<rect x="156" y="108" width="12" height="12" fill="#1a6f77"/>
<rect x="168" y="108" width="12" height="12" fill="#24786b"/>
<rect x="180" y="108" width="12" height="12" fill="#2d815f"/>
<rect x="192" y="108" width="12" height="12" fill="#378a54"/>
<rect x="204" y="108" width="12" height="12" fill="#409248"/>
<rect x="216" y="108" width="12" height="12" fill="#4a9b3d"/>
<rect x="48" y="120" width="12" height="12" fill="#53a431"/>
<rect x="60" y="120" width="12" height="12" fill="#69ab36"/>
<rect x="72" y="120" width="12" height="12" fill="#81b13e"/>
<rect x="84" y="120" width="12" height="12" fill="#99b745"/>
<rect x="96" y="120" width="12" height="12" fill="#0a3349"/>
<rect x="108" y="120" width="12" height="12" fill="#0c3e55"/>
<rect x="120" y="120" width="12" height="12" fill="#0d4860"/>
<rect x="132" y="120" width="12" height="12" fill="#0f526b"/>
<rect x="144" y="120" width="12" height="12" fill="#105c76"/>
<rect x="156" y="120" width="12" height="12" fill="#116681"/>
<rect x="168" y="120" width="12" height="12" fill="#1b6f76"/>
<rect x="180" y="120" width="12" height="12" fill="#24786b"/>
<rect x="192" y="120" width="12" height="12" fill="#2e815f"/>
<rect x="204" y="120" width="12" height="12" fill="#378a54"/>
<rect x="216" y="120" width="12" height="12" fill="#419348"/>
<rect x="48" y="132" width="12" height="12" fill="#4a9c3c"/>
<rect x="60" y="132" width="12" height="12" fill="#53a431"/>
<rect x="72" y="132" width="12" height="12" fill="#6aab36"/>
<rect x="84" y="132" width="12" height="12" fill="#82b13e"/>
<rect x="96" y="132" width="12" height="12" fill="#9ab745"/>
<rect x="108" y="132" width="12" height="12" fill="#b2bd4d"/>
<rect x="120" y="132" width="12" height="12" fill="#0c3e55"/>
<rect x="132" y="132" width="12" height="12" fill="#0d4860"/>
<rect x="144" y="132" width="12" height="12" fill="#0f526b"/>
<rect x="156" y="132" width="12" height="12" fill="#105c76"/>
<rect x="168" y="132" width="12" height="12" fill="#126781"/>
<rect x="180" y="132" width="12" height="12" fill="#1b6f76"/>
<rect x="192" y="132" width="12" height="12" fill="#24786a"/>
<rect x="204" y="132" width="12" height="12" fill="#2e815f"/>
<rect x="216" y="132" width="12" height="12" fill="#378a53"/>
<rect x="48" y="144" width="12" height="12" fill="#419348"/>
<rect x="60" y="144" width="12" height="12" fill="#4a9c3c"/>
<rect x="72" y="144" width="12" height="12" fill="#54a530"/>
<rect x="84" y="144" width="12" height="12" fill="#6aab36"/>
<rect x="96" y="144" width="12" height="12" fill="#82b13e"/>
<rect x="108" y="144" width="12" height="12" fill="#9ab746"/>
<rect x="120" y="144" width="12" height="12" fill="#b2bd4d"/>
<rect x="132" y="144" width="12" height="12" fill="#cac355"/>
<rect x="144" y="144" width="12" height="12" fill="#0d4860"/>
<rect x="156" y="144" width="12" height="12" fill="#0f526c"/>
<rect x="168" y="144" width="12" height="12" fill="#105d77"/>
<rect x="180" y="144" width="12" height="12" fill="#126781"/>
<rect x="192" y="144" width="12" height="12" fill="#1b7076"/>
<rect x="204" y="144" width="12" height="12" fill="#25796a"/>
<rect x="216" y="144" width="12" height="12" fill="#2e815e"/>
<rect x="48" y="156" width="12" height="12" fill="#388a53"/>
<rect x="60" y="156" width="12" height="12" fill="#419347"/>
<rect x="72" y="156" width="12" height="12" fill="#4b9c3c"/>
<rect x="84" y="156" width="12" height="12" fill="#54a530"/>
<rect x="96" y="156" width="12" height="12" fill="#6bab37"/>
<rect x="108" y="156" width="12" height="12" fill="#83b13e"/>
<rect x="120" y="156" width="12" height="12" fill="#9bb746"/>
<rect x="132" y="156" width="12" height="12" fill="#b3bd4e"/>
<rect x="144" y="156" width="12" height="12" fill="#cbc355"/>
<rect x="156" y="156" width="12" height="12" fill="#e3ca5d"/>
<rect x="168" y="156" width="12" height="12" fill="#0f536c"/>
<rect x="180" y="156" width="12" height="12" fill="#105d77"/>
<rect x="192" y="156" width="12" height="12" fill="#126781"/>
<rect x="204" y="156" width="12" height="12" fill="#1b7075"/>
<rect x="216" y="156" width="12" height="12" fill="#25796a"/>
<rect x="48" y="168" width="12" height="12" fill="#2e825e"/>
<rect x="60" y="168" width="12" height="12" fill="#388b53"/>
<rect x="72" y="168" width="12" height="12" fill="#419347"/>
<rect x="84" y="168" width="12" height="12" fill="#4b9c3b"/>
<rect x="96" y="168" width="12" height="12" fill="#54a530"/>
<rect x="108" y="168" width="12" height="12" fill="#6cab37"/>
<rect x="120" y="168" width="12" height="12" fill="#84b13f"/>
<rect x="132" y="168" width="12" height="12" fill="#9cb846"/>
<rect x="144" y="168" width="12" height="12" fill="#b4be4e"/>
<rect x="156" y="168" width="12" height="12" fill="#ccc455"/>
<rect x="168" y="168" width="12" height="12" fill="#e4ca5d"/>
<rect x="180" y="168" width="12" height="12" fill="#fcd065"/>
<rect x="192" y="168" width="12" height="12" fill="#105d77"/>
<rect x="204" y="168" width="12" height="12" fill="#126781"/>
<rect x="216" y="168" width="12" height="12" fill="#1c7075"/>
<rect x="48" y="180" width="12" height="12" fill="#257969"/>
<rect x="60" y="180" width="12" height="12" fill="#2f825e"/>
<rect x="72" y="180" width="12" height="12" fill="#388b52"/>
<rect x="84" y="180" width="12" height="12" fill="#429447"/>
<rect x="96" y="180" width="12" height="12" fill="#4b9d3b"/>
<rect x="108" y="180" width="12" height="12" fill="#55a630"/>
<rect x="120" y="180" width="12" height="12" fill="#6cac37"/>
<rect x="132" y="180" width="12" height="12" fill="#84b23f"/>
<rect x="144" y="180" width="12" height="12" fill="#9cb846"/>
<rect x="156" y="180" width="12" height="12" fill="#b4be4e"/>
<rect x="168" y="180" width="12" height="12" fill="#ccc456"/>
<rect x="180" y="180" width="12" height="12" fill="#e4ca5d"/>
<rect x="192" y="180" width="12" height="12" fill="#fcd065"/>
<rect x="204" y="180" width="12" height="12" fill="#fcbf67"/>
<rect x="216" y="180" width="12" height="12" fill="#136880"/>
<rect x="48" y="192" width="12" height="12" fill="#1c7075"/>
<rect x="60" y="192" width="12" height="12" fill="#257969"/>
<rect x="72" y="192" width="12" height="12" fill="#2f825d"/>
<rect x="84" y="192" width="12" height="12" fill="#388b52"/>
<rect x="96" y="192" width="12" height="12" fill="#429446"/>
<rect x="108" y="192" width="12" height="12" fill="#4b9d3b"/>
<rect x="120" y="192" width="12" height="12" fill="#55a630"/>
<rect x="132" y="192" width="12" height="12" fill="#6dac37"/>
<rect x="144" y="192" width="12" height="12" fill="#85b23f"/>
<rect x="156" y="192" width="12" height="12" fill="#9db847"/>
<rect x="168" y="192" width="12" height="12" fill="#b5be4e"/>
<rect x="180" y="192" width="12" height="12" fill="#cdc456"/>
<rect x="192" y="192" width="12" height="12" fill="#e5ca5d"/>
<rect x="204" y="192" width="12" height="12" fill="#fdd065"/>
<rect x="216" y="192" width="12" height="12" fill="#fcbe67"/>
<rect x="48" y="204" width="12" height="12" fill="#faab68"/>
<rect x="60" y="204" width="12" height="12" fill="#1c7174"/>
<rect x="72" y="204" width="12" height="12" fill="#267a69"/>
<rect x="84" y="204" width="12" height="12" fill="#2f825d"/>
<rect x="96" y="204" width="12" height="12" fill="#398b52"/>
<rect x="108" y="204" width="12" height="12" fill="#429446"/>
<rect x="120" y="204" width="12" height="12" fill="#4c9d3a"/>
<rect x="132" y="204" width="12" height="12" fill="#56a630"/>
<rect x="144" y="204" width="12" height="12" fill="#6eac38"/>
<rect x="156" y="204" width="12" height="12" fill="#86b23f"/>
<rect x="168" y="204" width="12" height="12" fill="#9eb847"/>
<rect x="180" y="204" width="12" height="12" fill="#b6be4e"/>
<rect x="192" y="204" width="12" height="12" fill="#cec456"/>
<rect x="204" y="204" width="12" height="12" fill="#e6ca5e"/>
<rect x="216" y="204" width="12" height="12" fill="#fed065"/>
<rect x="48" y="216" width="12" height="12" fill="#fcbe67"/>
<rect x="60" y="216" width="12" height="12" fill="#faaa68"/>
<rect x="72" y="216" width="12" height="12" fill="#f89769"/>
<rect x="84" y="216" width="12" height="12" fill="#267a68"/>
<rect x="96" y="216" width="12" height="12" fill="#2f835d"/>
<rect x="108" y="216" width="12" height="12" fill="#398c51"/>
<rect x="120" y="216" width="12" height="12" fill="#429446"/>
<rect x="132" y="216" width="12" height="12" fill="#4c9d3a"/>
<rect x="144" y="216" width="12" height="12" fill="#57a630"/>
<rect x="156" y="216" width="12" height="12" fill="#6fac38"/>
<rect x="168" y="216" width="12" height="12" fill="#87b23f"/>
<rect x="180" y="216" width="12" height="12" fill="#9fb847"/>
<rect x="192" y="216" width="12" height="12" fill="#b7be4f"/>
<rect x="204" y="216" width="12" height="12" fill="#cfc456"/>
<rect x="216" y="216" width="12" height="12" fill="#e7ca5e"/>
<rect x="48" y="228" width="12" height="12" fill="#ffd166"/>
<rect x="60" y="228" width="12" height="12" fill="#fcbd67"/>
<rect x="72" y="228" width="12" height="12" fill="#faaa68"/>
<rect x="84" y="228" width="12" height="12" fill="#f89669"/>
<rect x="96" y="228" width="12" height="12" fill="#f5836b"/>
<rect x="108" y="228" width="12" height="12" fill="#30835c"/>
<rect x="120" y="228" width="12" height="12" fill="#398c51"/>
<rect x="132" y="228" width="12" height="12" fill="#439545"/>
<rect x="144" y="228" width="12" height="12" fill="#4c9e3a"/>
<rect x="156" y="228" width="12" height="12" fill="#57a630"/>
<rect x="168" y="228" width="12" height="12" fill="#6fac38"/>
<rect x="180" y="228" width="12" height="12" fill="#87b240"/>
<rect x="192" y="228" width="12" height="12" fill="#9fb847"/>
<rect x="204" y="228" width="12" height="12" fill="#b7be4f"/>
<rect x="216" y="228" width="12" height="12" fill="#cfc556"/>
<rect x="48" y="240" width="12" height="12" fill="#e7cb5e"/>
<rect x="60" y="240" width="12" height="12" fill="#fed066"/>
<rect x="72" y="240" width="12" height="12" fill="#fcbc67"/>
<rect x="84" y="240" width="12" height="12" fill="#faa968"/>
<rect x="96" y="240" width="12" height="12" fill="#f89669"/>
<rect x="108" y="240" width="12" height="12" fill="#f5826b"/>
<rect x="120" y="240" width="12" height="12" fill="#f36f6c"/>
<rect x="132" y="240" width="12" height="12" fill="#398c51"/>
<rect x="144" y="240" width="12" height="12" fill="#439545"/>
<rect x="156" y="240" width="12" height="12" fill="#4c9e39"/>
<rect x="168" y="240" width="12" height="12" fill="#58a631"/>
<rect x="180" y="240" width="12" height="12" fill="#70ac38"/>
<rect x="192" y="240" width="12" height="12" fill="#88b340"/>
<rect x="204" y="240" width="12" height="12" fill="#a0b947"/>
<rect x="216" y="240" width="12" height="12" fill="#b8bf4f"/>
<rect x="48" y="252" width="12" height="12" fill="#d0c557"/>
<rect x="60" y="252" width="12" height="12" fill="#e8cb5e"/>
<rect x="72" y="252" width="12" height="12" fill="#fecf66"/>
<rect x="84" y="252" width="12" height="12" fill="#fcbc67"/>
<rect x="96" y="252" width="12" height="12" fill="#faa868"/>
<rect x="108" y="252" width="12" height="12" fill="#f89569"/>
<rect x="120" y="252" width="12" height="12" fill="#f5816b"/>
<rect x="132" y="252" width="12" height="12" fill="#f36e6c"/>
<rect x="144" y="252" width="12" height="12" fill="#f15b6d"/>
<rect x="156" y="252" width="12" height="12" fill="#439545"/>
<rect x="168" y="252" width="12" height="12" fill="#4d9e39"/>
<rect x="180" y="252" width="12" height="12" fill="#59a731"/>
<rect x="192" y="252" width="12" height="12" fill="#71ad38"/>
<rect x="204" y="252" width="12" height="12" fill="#89b340"/>
<rect x="216" y="252" width="12" height="12" fill="#a1b948"/>
<rect x="48" y="264" width="12" height="12" fill="#b9bf4f"/>
<rect x="60" y="264" width="12" height="12" fill="#d1c557"/>
<rect x="72" y="264" width="12" height="12" fill="#e9cb5f"/>
<rect x="84" y="264" width="12" height="12" fill="#fecf66"/>
<rect x="96" y="264" width="12" height="12" fill="#fcbb67"/>
<rect x="108" y="264" width="12" height="12" fill="#faa868"/>
<rect x="120" y="264" width="12" height="12" fill="#f89469"/>
<rect x="132" y="264" width="12" height="12" fill="#f5816b"/>
<rect x="144" y="264" width="12" height="12" fill="#f36d6c"/>
<rect x="156" y="264" width="12" height="12" fill="#f15a6d"/>
<rect x="168" y="264" width="12" height="12" fill="#ef476f"/>
<rect x="180" y="264" width="12" height="12" fill="#4d9e39"/>
<rect x="192" y="264" width="12" height="12" fill="#59a731"/>
<rect x="204" y="264" width="12" height="12" fill="#71ad39"/>
<rect x="216" y="264" width="12" height="12" fill="#89b340"/>
<circle cx="90.0" cy="258.0" r="6" fill="#f8fafc" stroke="#020617" stroke-width="2"/>
<text x="100.0" y="262.0" fill="#f8fafc" font-size="11" font-family="Arial">P1</text>
<circle cx="54.0" cy="102.0" r="6" fill="#f8fafc" stroke="#020617" stroke-width="2"/>
<text x="64.0" y="106.0" fill="#f8fafc" font-size="11" font-family="Arial">P2</text>
<circle cx="54.0" cy="102.0" r="6" fill="#f8fafc" stroke="#020617" stroke-width="2"/>
<text x="64.0" y="106.0" fill="#f8fafc" font-size="11" font-family="Arial">P3</text>
<circle cx="54.0" cy="102.0" r="6" fill="#f8fafc" stroke="#020617" stroke-width="2"/>
<text x="64.0" y="106.0" fill="#f8fafc" font-size="11" font-family="Arial">P4</text>
<circle cx="102.0" cy="246.0" r="6" fill="#f8fafc" stroke="#020617" stroke-width="2"/>
<text x="112.0" y="250.0" fill="#f8fafc" font-size="11" font-family="Arial">P5</text>
<text x="264" y="80" fill="#e2e8f0" font-size="12" font-family="Arial">Relative intensity</text>
<rect x="264" y="96" width="18" height="2" fill="#ef476f"/>
<rect x="264" y="98" width="18" height="2" fill="#ef4c6e"/>
<rect x="264" y="100" width="18" height="2" fill="#f0526e"/>
<rect x="264" y="102" width="18" height="2" fill="#f0576d"/>
<rect x="264" y="104" width="18" height="2" fill="#f15d6d"/>
<rect x="264" y="106" width="18" height="2" fill="#f2626d"/>
<rect x="264" y="108" width="18" height="2" fill="#f2686c"/>
<rect x="264" y="110" width="18" height="2" fill="#f36e6c"/>
<rect x="264" y="112" width="18" height="2" fill="#f4736c"/>
<rect x="264" y="114" width="18" height="2" fill="#f4796b"/>
<rect x="264" y="116" width="18" height="2" fill="#f57e6b"/>
<rect x="264" y="118" width="18" height="2" fill="#f6846b"/>
<rect x="264" y="120" width="18" height="2" fill="#f6896a"/>
<rect x="264" y="122" width="18" height="2" fill="#f78f6a"/>
<rect x="264" y="124" width="18" height="2" fill="#f89569"/>
<rect x="264" y="126" width="18" height="2" fill="#f89a69"/>
<rect x="264" y="128" width="18" height="2" fill="#f9a069"/>
<rect x="264" y="130" width="18" height="2" fill="#f9a568"/>
<rect x="264" y="132" width="18" height="2" fill="#faab68"/>
<rect x="264" y="134" width="18" height="2" fill="#fbb068"/>
<rect x="264" y="136" width="18" height="2" fill="#fbb667"/>
<rect x="264" y="138" width="18" height="2" fill="#fcbc67"/>
<rect x="264" y="140" width="18" height="2" fill="#fdc167"/>
<rect x="264" y="142" width="18" height="2" fill="#fdc766"/>
<rect x="264" y="144" width="18" height="2" fill="#fecc66"/>
<rect x="264" y="146" width="18" height="2" fill="#fdd065"/>
<rect x="264" y="148" width="18" height="2" fill="#f6ce63"/>
<rect x="264" y="150" width="18" height="2" fill="#efcd61"/>
<rect x="264" y="152" width="18" height="2" fill="#e8cb5e"/>
<rect x="264" y="154" width="18" height="2" fill="#e1c95c"/>
<rect x="264" y="156" width="18" height="2" fill="#dac75a"/>
<rect x="264" y="158" width="18" height="2" fill="#d4c658"/>
<rect x="264" y="160" width="18" height="2" fill="#cdc456"/>
<rect x="264" y="162" width="18" height="2" fill="#c6c254"/>
<rect x="264" y="164" width="18" height="2" fill="#bfc051"/>
<rect x="264" y="166" width="18" height="2" fill="#b8bf4f"/>
<rect x="264" y="168" width="18" height="2" fill="#b1bd4d"/>
<rect x="264" y="170" width="18" height="2" fill="#aabb4b"/>
<rect x="264" y="172" width="18" height="2" fill="#a3b949"/>
<rect x="264" y="174" width="18" height="2" fill="#9db846"/>
<rect x="264" y="176" width="18" height="2" fill="#96b644"/>
<rect x="264" y="178" width="18" height="2" fill="#8fb442"/>
<rect x="264" y="180" width="18" height="2" fill="#88b340"/>
<rect x="264" y="182" width="18" height="2" fill="#81b13e"/>
<rect x="264" y="184" width="18" height="2" fill="#7aaf3c"/>
<rect x="264" y="186" width="18" height="2" fill="#73ad39"/>
<rect x="264" y="188" width="18" height="2" fill="#6dac37"/>
<rect x="264" y="190" width="18" height="2" fill="#66aa35"/>
<rect x="264" y="192" width="18" height="2" fill="#5fa833"/>
<rect x="264" y="194" width="18" height="2" fill="#58a631"/>
<rect x="264" y="196" width="18" height="2" fill="#53a431"/>
<rect x="264" y="198" width="18" height="2" fill="#50a234"/>
<rect x="264" y="200" width="18" height="2" fill="#4e9f38"/>
<rect x="264" y="202" width="18" height="2" fill="#4b9d3b"/>
<rect x="264" y="204" width="18" height="2" fill="#489a3e"/>
<rect x="264" y="206" width="18" height="2" fill="#469842"/>
<rect x="264" y="208" width="18" height="2" fill="#439545"/>
<rect x="264" y="210" width="18" height="2" fill="#409248"/>
<rect x="264" y="212" width="18" height="2" fill="#3d904c"/>
<rect x="264" y="214" width="18" height="2" fill="#3b8d4f"/>
<rect x="264" y="216" width="18" height="2" fill="#388b52"/>
<rect x="264" y="218" width="18" height="2" fill="#358856"/>
<rect x="264" y="220" width="18" height="2" fill="#338659"/>
<rect x="264" y="222" width="18" height="2" fill="#30835c"/>
<rect x="264" y="224" width="18" height="2" fill="#2d8160"/>
<rect x="264" y="226" width="18" height="2" fill="#2b7e63"/>
<rect x="264" y="228" width="18" height="2" fill="#287c66"/>
<rect x="264" y="230" width="18" height="2" fill="#257969"/>
<rect x="264" y="232" width="18" height="2" fill="#22766d"/>
<rect x="264" y="234" width="18" height="2" fill="#207470"/>
<rect x="264" y="236" width="18" height="2" fill="#1d7173"/>
<rect x="264" y="238" width="18" height="2" fill="#1a6f77"/>
<rect x="264" y="240" width="18" height="2" fill="#186c7a"/>
<rect x="264" y="242" width="18" height="2" fill="#156a7d"/>
<rect x="264" y="244" width="18" height="2" fill="#126781"/>
<rect x="264" y="246" width="18" height="2" fill="#11647f"/>
<rect x="264" y="248" width="18" height="2" fill="#11617c"/>
<rect x="264" y="250" width="18" height="2" fill="#105f79"/>
<rect x="264" y="252" width="18" height="2" fill="#105c76"/>
<rect x="264" y="254" width="18" height="2" fill="#105972"/>
<rect x="264" y="256" width="18" height="2" fill="#0f566f"/>
<rect x="264" y="258" width="18" height="2" fill="#0f536c"/>
<rect x="264" y="260" width="18" height="2" fill="#0e5069"/>
<rect x="264" y="262" width="18" height="2" fill="#0e4d66"/>
<rect x="264" y="264" width="18" height="2" fill="#0e4a62"/>
<rect x="264" y="266" width="18" height="2" fill="#0d475f"/>
<rect x="264" y="268" width="18" height="2" fill="#0d445c"/>
<rect x="264" y="270" width="18" height="2" fill="#0c4159"/>
<rect x="264" y="272" width="18" height="2" fill="#0c3f56"/>
<rect x="264" y="274" width="18" height="2" fill="#0c3c52"/>
<rect x="264" y="276" width="18" height="2" fill="#0b394f"/>
<rect x="264" y="278" width="18" height="2" fill="#0b364c"/>
<rect x="264" y="280" width="18" height="2" fill="#0a3349"/>
<rect x="264" y="282" width="18" height="2" fill="#0a3046"/>
<rect x="264" y="284" width="18" height="2" fill="#0a2d42"/>
<rect x="264" y="286" width="18" height="2" fill="#092a3f"/>
<rect x="264" y="288" width="18" height="2" fill="#09273c"/>
<rect x="264" y="290" width="18" height="2" fill="#082439"/>
<rect x="264" y="292" width="18" height="2" fill="#082136"/>
<rect x="264" y="294" width="18" height="2" fill="#081f33"/>
<text x="292" y="106" fill="#f8fafc" font-size="11" font-family="Arial">High</text>
<text x="292" y="294" fill="#94a3b8" font-size="11" font-family="Arial">Low</text>
<text x="264" y="332" fill="#e2e8f0" font-size="12" font-family="Arial">Notes</text>
<text x="264" y="348" fill="#94a3b8" font-size="11" font-family="Arial">White markers are observed sample pixels projected into the model grid.</text>
<text x="264" y="364" fill="#94a3b8" font-size="11" font-family="Arial">Warm regions favor stronger ice-compatible scattering.</text>
<text x="48" y="356" fill="#94a3b8" font-size="11" font-family="Arial">This MVP uses a simplified single-scattering surface model, not a volumetric radiative-transfer simulation.</text>
</svg>